<svg width="24" height="24" viewBox="0 0 24 24" fill="none" xmlns="http://www.w3.org/2000/svg">
<path fill-rule="evenodd" clip-rule="evenodd" d="M15.9202 12.799C15.9725 12.5408 16 12.2736 16 12C16 9.79086 14.2091 8 12 8C11.7264 8 11.4592 8.02747 11.201 8.07981L15.9202 12.799ZM8.66685 9.78786C8.24551 10.4214 8 11.1821 8 12C8 14.2091 9.79086 16 12 16C12.8179 16 13.5786 15.7545 14.2121 15.3331L12.7383 13.8593C12.5099 13.9501 12.2608 14 12 14C10.8954 14 10 13.1046 10 12C10 11.7392 10.0499 11.4901 10.1407 11.2617L8.66685 9.78786Z" fill="#1E293B"/>
<path fill-rule="evenodd" clip-rule="evenodd" d="M18.9449 15.8238C19.7874 15.0588 20.4733 14.2921 20.96 13.7012C20.9837 13.6724 21.0084 13.6428 21.0338 13.6124C21.3472 13.2371 21.7705 12.7301 21.7705 12C21.7705 11.2699 21.3472 10.7629 21.0338 10.3876C21.0084 10.3572 20.9837 10.3276 20.96 10.2988C20.2201 9.40055 19.0197 8.09584 17.5088 7.00879C16.0058 5.92745 14.1099 5 12 5C10.8643 5 9.79051 5.26875 8.80667 5.68558L10.3675 7.24641C10.9029 7.08844 11.449 7 12 7C13.5258 7 15.0138 7.67808 16.3408 8.63281C17.6599 9.58184 18.7358 10.7445 19.416 11.5703C19.4273 11.584 19.4382 11.5973 19.4489 11.6102C19.5325 11.7116 19.5976 11.7907 19.6524 11.8613C19.7005 11.9235 19.7295 11.9683 19.7498 11.9997L19.75 12L19.7498 12.0003C19.7295 12.0317 19.7005 12.0765 19.6524 12.1387C19.5976 12.2094 19.5325 12.2884 19.4488 12.3899C19.4382 12.4028 19.4273 12.416 19.416 12.4297C18.9537 12.991 18.3086 13.7078 17.5286 14.4075L18.9449 15.8238ZM16.5193 17.6404L15.0497 16.1708C14.0776 16.6803 13.0477 17 12 17C10.4742 17 8.98621 16.3219 7.65919 15.3672C6.34016 14.4182 5.26419 13.2555 4.584 12.4297C4.57278 12.4161 4.56188 12.4028 4.55128 12.39C4.46759 12.2884 4.40244 12.2094 4.34767 12.1387C4.29915 12.076 4.26935 12.0314 4.24903 12C4.26935 11.9686 4.29915 11.924 4.34767 11.8613C4.40243 11.7906 4.46758 11.7116 4.55126 11.61C4.56187 11.5972 4.57277 11.5839 4.584 11.5703C5.24944 10.7624 6.29369 9.63209 7.57374 8.69484L6.14473 7.26582C4.79653 8.29613 3.72243 9.47034 3.04005 10.2988C3.01644 10.3275 2.99184 10.357 2.96652 10.3873C2.67421 10.7374 2.28628 11.202 2.23536 11.8555L2.2295 12L2.23536 12.1445C2.28628 12.798 2.67421 13.2626 2.96652 13.6127C2.99184 13.643 3.01644 13.6725 3.04005 13.7012C3.77992 14.5995 4.98028 15.9042 6.49122 16.9912C7.99425 18.0726 9.89012 19 12 19C13.6701 19 15.2061 18.4189 16.5193 17.6404Z" fill="#1E293B"/>
<path d="M5 2L21 18" stroke="#1E293B" stroke-width="2"/>
</svg>
