<?xml version="1.0" encoding="UTF-8"?>
<svg xmlns="http://www.w3.org/2000/svg" version="1.1" viewBox="0 0 511.6 511.6">
  <defs>
    <style>
      .cls-1 {
        fill: #fff;
      }
    </style>
  </defs>
  <!-- Generator: Adobe Illustrator 28.7.1, SVG Export Plug-In . SVG Version: 1.2.0 Build 142)  -->
  <g>
    <g id="Capa_1">
      <path class="cls-1" d="M475.4,68.4c-24.2-23.6-57.6-35.4-100.2-35.4s-23.8,2-36.1,6.1c-12.3,4.1-23.7,9.6-34.3,16.6-10.6,6.9-19.6,13.5-27.3,19.6-7.6,6.1-14.8,12.6-21.7,19.4-6.9-6.8-14.1-13.3-21.7-19.4-7.6-6.1-16.7-12.6-27.3-19.6-10.6-7-22-12.5-34.3-16.6-12.3-4.1-24.3-6.1-36.1-6.1-42.6,0-76,11.8-100.2,35.4C12.1,92,0,124.7,0,166.6s2.2,25.9,6.7,39.4c4.5,13.5,9.6,25,15.3,34.5,5.7,9.5,12.2,18.8,19.4,27.8,7.2,9,12.5,15.3,15.8,18.7,3.3,3.4,5.9,5.9,7.9,7.4l178.2,171.9c3.4,3.4,7.6,5.1,12.6,5.1s9.1-1.7,12.6-5.1l177.9-171.3c43.6-43.6,65.4-86.4,65.4-128.5,0-41.9-12.1-74.6-36.3-98.2ZM421.4,268.2l-165.6,159.6-165.9-159.9c-35.6-35.6-53.4-69.4-53.4-101.4s2-29,6.1-40.8c4.1-11.8,9.3-21.2,15.7-28.1,6.4-6.9,14.1-12.6,23.3-17,9.1-4.4,18.1-7.3,26.8-8.8,8.8-1.5,18.1-2.3,28-2.3s20.6,2.4,32,7.3c11.4,4.9,21.9,10.9,31.5,18.3,9.6,7.3,17.8,14.2,24.7,20.6,6.9,6.4,12.6,12.2,17.1,17.6,3.4,4.2,8.1,6.3,14,6.3s10.6-2.1,14-6.3c4.6-5.3,10.3-11.2,17.1-17.6,6.9-6.4,15.1-13.2,24.7-20.6,9.6-7.3,20.1-13.4,31.6-18.3,11.4-4.9,22.1-7.3,32-7.3s19.2.8,28,2.3c8.8,1.5,17.7,4.5,26.8,8.8,9.1,4.4,16.9,10,23.3,17,6.4,6.9,11.6,16.3,15.7,28.1,4.1,11.8,6.1,25.4,6.1,40.8,0,32-17.9,65.9-53.7,101.6Z"/>
    </g>
  </g>
</svg>