<?xml version="1.0" encoding="UTF-8"?>
<svg xmlns="http://www.w3.org/2000/svg" version="1.1" viewBox="0 0 299.9 299.9">
  <defs>
    <style>
      .cls-1 {
        fill: #fff;
      }
    </style>
  </defs>
  <!-- Generator: Adobe Illustrator 28.7.1, SVG Export Plug-In . SVG Version: 1.2.0 Build 142)  -->
  <g>
    <g id="Capa_1">
      <path class="cls-1" d="M293.5,53.6H55.7c-.5,0-.9.2-1.3.3l-9.7-32.1c-.1-.3-.3-.6-.5-.9-.3-3.3-3-5.9-6.3-5.9H6.4C2.8,15.1,0,18,0,21.5c0,3.5,2.9,6.4,6.4,6.4h26.7c0-.1,61.5,204.1,61.5,204.1-6.1,5.6-10,13.5-10,22.5,0,16.9,13.7,30.5,30.5,30.5s30.5-13.7,30.5-30.5-1-8.5-2.6-12.3h88.8c-1.7,3.8-2.6,7.9-2.6,12.3,0,16.9,13.7,30.5,30.5,30.5s30.5-13.7,30.5-30.5-13.7-30.5-30.5-30.5-12.3,2-17.2,5.4h-110.1c-4.9-3.4-10.8-5.4-17.2-5.4s-6.2.6-9.1,1.5l-9.2-30.4h161.9c2.8-.1,5.2-2,6-4.6.2-.4.5-.8.6-1.3l34.3-126.4c.2-.8.2-1.6.2-2.4,0-.1,0-.2,0-.4,0-3.6-2.9-6.4-6.4-6.4ZM259.8,236.8c9.7,0,17.7,7.9,17.7,17.7s-7.9,17.7-17.7,17.7-17.7-7.9-17.7-17.7c0-9.8,7.9-17.7,17.7-17.7ZM115.2,236.8c9.8,0,17.7,7.9,17.7,17.7s-7.9,17.7-17.7,17.7-17.7-7.9-17.7-17.7c0-9.8,7.9-17.7,17.7-17.7ZM254,182H93c0,.1-34.9-115.6-34.9-115.6h227.2l-31.3,115.6Z"/>
    </g>
  </g>
</svg>