<?xml version="1.0" encoding="UTF-8"?>
<svg xmlns="http://www.w3.org/2000/svg" version="1.1" viewBox="0 0 24 24">
  <defs>
    <style>
      .cls-1 {
        fill: #fff;
        fill-rule: evenodd;
      }
    </style>
  </defs>
  <!-- Generator: Adobe Illustrator 28.7.1, SVG Export Plug-In . SVG Version: 1.2.0 Build 142)  -->
  <g>
    <g id="_Слой_1" data-name="Слой_1">
      <g id="User">
        <path id="Rectangle_39__x28_Stroke_x29_" class="cls-1" d="M.2,20c0-3.7,3-6.8,6.8-6.8h10c3.7,0,6.8,3,6.8,6.8v2c0,1-.8,1.8-1.8,1.8H2c-1,0-1.8-.8-1.8-1.8v-2ZM7,14.8c-2.9,0-5.2,2.4-5.2,5.2v2c0,.1.1.2.2.2h20c.1,0,.2-.1.2-.2v-2c0-2.9-2.4-5.2-5.2-5.2H7Z"/>
        <path id="Ellipse_21__x28_Stroke_x29_" class="cls-1" d="M11.5,1.8c-2.6,0-4.8,2.1-4.8,4.8s2.1,4.8,4.8,4.8,4.8-2.1,4.8-4.8S14.1,1.8,11.5,1.8ZM5.2,6.5C5.2,3,8,.2,11.5.2s6.2,2.8,6.2,6.2-2.8,6.2-6.2,6.2-6.2-2.8-6.2-6.2Z"/>
      </g>
    </g>
  </g>
</svg>